<svg width="24" height="24" viewBox="0 0 24 24" fill="none" xmlns="http://www.w3.org/2000/svg">
<path d="M2 2C1.44772 2 1 2.44772 1 3V15C1 15.5523 1.44772 16 2 16H11V18H8C7.44772 18 7 18.4477 7 19C7 19.5523 7.44772 20 8 20H16C16.5523 20 17 19.5523 17 19C17 18.4477 16.5523 18 16 18H13V16H22C22.5523 16 23 15.5523 23 15V3C23 2.44772 22.5523 2 22 2H2Z" fill="#FCAD09"/>
<path d="M4 6C4 5.44772 4.44772 5 5 5H14C14.5523 5 15 5.44772 15 6C15 6.55228 14.5523 7 14 7H5C4.44772 7 4 6.55228 4 6Z" fill="white"/>
<path d="M4 9.5C4 8.94772 4.44772 8.5 5 8.5H10C10.5523 8.5 11 8.94772 11 9.5C11 10.0523 10.5523 10.5 10 10.5H5C4.44772 10.5 4 10.0523 4 9.5Z" fill="white"/>
</svg>
